# xmcd CD database file
#
# Track frame offsets:
#	150
#	15985
#	30752
#	44560
#	60792
#	77740
#	96729
#	110345
#	126700
#	142707
#	155462
#
# Disc length: 2320 seconds
#
# Revision: 0
# Processed by: cddbd v1.5.2PL0 Copyright (c) Steve Scherf et al.
# Submitted via: CDex 1.51
#
DISCID=82090e0b
DTITLE=Alabama - Greatest Hits Vol III
DYEAR=1994
DGENRE=Country
TTITLE0=Give Me One More Shot
TTITLE1=We Can't Love Like This Anymore
TTITLE2=Tennesse River
TTITLE3=When We Make Love
TTITLE4=If You' re Gonna Play In Texas
TTITLE5=There's no Way
TTITLE6=Face To Face
TTITLE7=Jukebox In My Mind
TTITLE8=Forever's As Far As I'll Go
TTITLE9=I'm In A Hurry(and don't know why)
TTITLE10=Angels Among Us
EXTD=YEAR: 1994
EXTT0=
EXTT1=
EXTT2=
EXTT3=
EXTT4=
EXTT5=
EXTT6=
EXTT7=
EXTT8=
EXTT9=
EXTT10=
PLAYORDER=
